<svg width="128" height="31" viewBox="0 0 128 31" fill="none" xmlns="http://www.w3.org/2000/svg">
<path fill-rule="evenodd" clip-rule="evenodd" d="M89.9766 8.81543C91.3502 8.54658 94.6041 8.63861 95.8301 8.98047C98.8039 9.80974 100.968 11.7721 102.087 14.6553C102.705 16.248 103.04 18.6968 102.874 20.3984L102.77 21.4658H94.9102C89.9743 21.4658 87.0498 21.5199 87.0498 21.6113C87.0501 21.6922 87.1951 22.148 87.3721 22.625C87.7456 23.6316 88.7769 24.8242 89.6729 25.2861C91.1418 26.0435 91.2849 26.0558 99.5068 26.1064L107.236 26.1543L111.938 19.7998L103.994 9.0293H110.27L115.716 16.1689L121.227 9.0293H127.502L119.294 19.5127L128 31H121.725L115.698 23.1748L109.793 31L101.011 30.999C91.2881 30.9981 90.2553 30.9257 88.1455 30.0947C84.8243 28.7868 82.8859 26.6057 81.6201 22.752C81.3137 21.8192 81.3517 17.7085 81.6777 16.5205C82.7863 12.4841 85.872 9.61921 89.9766 8.81543ZM93.9482 13.3896C92.6701 13.123 90.807 13.238 89.8994 13.6396C88.6606 14.1879 87.4801 15.6747 87.1416 17.1143L87.0439 17.5303H97.1055V17.0566C97.1055 15.4073 95.679 13.7507 93.9482 13.3896Z" fill="#21B23B"/>
<path d="M32.9717 30.6992H27.293V9.33008H32.9717V30.6992Z" fill="#21B23B"/>
<path d="M55.4834 12.8916L43.9785 25.8838H55.4834V30.6992H35.6611V27.3887L47.6641 14.2461H35.6611V9.33008H55.4834V12.8916Z" fill="#21B23B"/>
<path d="M71.3984 8.93848C73.9494 9.03117 75.3649 9.80988 76.9951 10.9834C78.6703 12.3378 79.3896 14.4479 79.3896 17.0879V30.6992H73.6846V17.3076C73.4629 15.8518 73.0538 15.3048 72.4668 14.748C71.9062 14.2164 71.2715 13.8442 69.5781 13.6436C67.2873 13.6436 66.54 14.045 65.8428 14.5967C65.8428 14.5967 64.5977 15.4999 64.0996 17.8574C63.9792 19.6096 63.9655 22.927 63.9521 26.1758C63.9456 27.7634 63.9397 29.335 63.9209 30.6992H58.1729V9.39453H63.2529L63.8008 12.3896C63.8532 12.3411 63.9056 12.2927 63.958 12.2441C65.7468 10.586 67.5346 8.92875 70.873 8.92871L71.3984 8.93848Z" fill="#21B23B"/>
<path fill-rule="evenodd" clip-rule="evenodd" d="M0 2.24512L7.3916 2.24609C13.0012 2.24655 15.0914 2.29691 16.0596 2.45703C20.748 3.23273 23.3149 6.06777 23.0635 10.1904C22.9616 11.8598 22.5666 13.0701 21.6758 14.4375C21.066 15.3738 21.0284 15.4838 21.2705 15.6123C21.8686 15.9302 23.53 17.8069 23.9062 18.5898C25.248 21.3813 24.979 24.84 23.2363 27.209C22.5479 28.1447 22.1213 28.5648 21.2373 29.1768C20.4367 29.7311 18.783 30.3824 17.7344 30.5557C17.2656 30.6328 13.0849 30.6958 8.44238 30.6963L0 30.6973V2.24512ZM5.92871 25.4756H10.9561C15.4373 25.4756 16.0699 25.4455 16.7705 25.1992C18.1036 24.7302 18.9126 23.4509 18.9102 21.8145C18.9091 21.1146 18.7361 20.4902 18.4268 19.9805C17.8445 19.0216 16.6061 18.851 15.4902 18.832L5.90625 18.6689L5.92871 25.4756ZM5.85352 13.7588H14.3408C15.2151 13.7587 16.1027 13.5059 16.6963 12.8594C17.2813 12.2221 17.6738 11.4778 17.6807 10.499C17.6923 8.81908 16.7355 7.7645 15.1582 7.40234C14.7829 7.31642 12.5587 7.24528 10.168 7.24316L5.85352 7.23926V13.7588Z" fill="#21B23B"/>
<path d="M30.082 0C32.0075 0 33.5693 1.57247 33.5693 3.51172C33.5691 5.45079 32.0074 7.02246 30.082 7.02246C28.1569 7.02221 26.5959 5.45064 26.5957 3.51172C26.5957 1.57262 28.1568 0.000249201 30.082 0Z" fill="#21B23B"/>
<path fill-rule="evenodd" clip-rule="evenodd" d="M89.9766 8.81543C91.3502 8.54658 94.6041 8.63861 95.8301 8.98047C98.8039 9.80974 100.968 11.7721 102.087 14.6553C102.705 16.248 103.04 18.6968 102.874 20.3984L102.77 21.4658H94.9102C89.9743 21.4658 87.0498 21.5199 87.0498 21.6113C87.0501 21.6922 87.1951 22.148 87.3721 22.625C87.7456 23.6316 88.7769 24.8242 89.6729 25.2861C91.1418 26.0435 91.2849 26.0558 99.5068 26.1064L107.236 26.1543L111.938 19.7998L103.994 9.0293H110.27L115.716 16.1689L121.227 9.0293H127.502L119.294 19.5127L128 31H121.725L115.698 23.1748L109.793 31L101.011 30.999C91.2881 30.9981 90.2553 30.9257 88.1455 30.0947C84.8243 28.7868 82.8859 26.6057 81.6201 22.752C81.3137 21.8192 81.3517 17.7085 81.6777 16.5205C82.7863 12.4841 85.872 9.61921 89.9766 8.81543ZM93.9482 13.3896C92.6701 13.123 90.807 13.238 89.8994 13.6396C88.6606 14.1879 87.4801 15.6747 87.1416 17.1143L87.0439 17.5303H97.1055V17.0566C97.1055 15.4073 95.679 13.7507 93.9482 13.3896Z" fill="#21B23B"/>
<path d="M32.9717 30.6992H27.293V9.33008H32.9717V30.6992Z" fill="#21B23B"/>
<path d="M55.4834 12.8916L43.9785 25.8838H55.4834V30.6992H35.6611V27.3887L47.6641 14.2461H35.6611V9.33008H55.4834V12.8916Z" fill="#21B23B"/>
<path d="M71.3984 8.93848C73.9494 9.03117 75.3649 9.80988 76.9951 10.9834C78.6703 12.3378 79.3896 14.4479 79.3896 17.0879V30.6992H73.6846V17.3076C73.4629 15.8518 73.0538 15.3048 72.4668 14.748C71.9062 14.2164 71.2715 13.8442 69.5781 13.6436C67.2873 13.6436 66.54 14.045 65.8428 14.5967C65.8428 14.5967 64.5977 15.4999 64.0996 17.8574C63.9792 19.6096 63.9655 22.927 63.9521 26.1758C63.9456 27.7634 63.9397 29.335 63.9209 30.6992H58.1729V9.39453H63.2529L63.8008 12.3896C63.8532 12.3411 63.9056 12.2927 63.958 12.2441C65.7468 10.586 67.5346 8.92875 70.873 8.92871L71.3984 8.93848Z" fill="#21B23B"/>
<path fill-rule="evenodd" clip-rule="evenodd" d="M0 2.24512L7.3916 2.24609C13.0012 2.24655 15.0914 2.29691 16.0596 2.45703C20.748 3.23273 23.3149 6.06777 23.0635 10.1904C22.9616 11.8598 22.5666 13.0701 21.6758 14.4375C21.066 15.3738 21.0284 15.4838 21.2705 15.6123C21.8686 15.9302 23.53 17.8069 23.9062 18.5898C25.248 21.3813 24.979 24.84 23.2363 27.209C22.5479 28.1447 22.1213 28.5648 21.2373 29.1768C20.4367 29.7311 18.783 30.3824 17.7344 30.5557C17.2656 30.6328 13.0849 30.6958 8.44238 30.6963L0 30.6973V2.24512ZM5.92871 25.4756H10.9561C15.4373 25.4756 16.0699 25.4455 16.7705 25.1992C18.1036 24.7302 18.9126 23.4509 18.9102 21.8145C18.9091 21.1146 18.7361 20.4902 18.4268 19.9805C17.8445 19.0216 16.6061 18.851 15.4902 18.832L5.90625 18.6689L5.92871 25.4756ZM5.85352 13.7588H14.3408C15.2151 13.7587 16.1027 13.5059 16.6963 12.8594C17.2813 12.2221 17.6738 11.4778 17.6807 10.499C17.6923 8.81908 16.7355 7.7645 15.1582 7.40234C14.7829 7.31642 12.5587 7.24528 10.168 7.24316L5.85352 7.23926V13.7588Z" fill="#21B23B"/>
<path d="M30.082 0C32.0075 0 33.5693 1.57247 33.5693 3.51172C33.5691 5.45079 32.0074 7.02246 30.082 7.02246C28.1569 7.02221 26.5959 5.45064 26.5957 3.51172C26.5957 1.57262 28.1568 0.000249201 30.082 0Z" fill="#21B23B"/>
</svg>
